# xmcd CD database file
#
# Track frame offsets:
#	182
#	14740
#	35507
#	47097
#	67035
#	89907
#	104005
#	125350
#
# Disc length: 2009 seconds
#
# Revision: 0
# Processed by: cddbd v1.5.1PL2 Copyright (c) Steve Scherf et al.
# Submitted via: CDex 1.51
#
DISCID=7707d708
DTITLE=Martin Arroyo - Now Is The Time
DYEAR=1993
DGENRE=Jazz
TTITLE0=Witch Doctor
TTITLE1=Goodbye Father
TTITLE2=Monk Lives
TTITLE3=Quite Alone
TTITLE4=J.T.
TTITLE5=When It Rains, It Pours
TTITLE6=To All My Children
TTITLE7=My Lost Friend
EXTD=YEAR: 1993
EXTT0=
EXTT1=
EXTT2=
EXTT3=
EXTT4=
EXTT5=
EXTT6=
EXTT7=
PLAYORDER=
